<?xml version="1.0" standalone="no"?>
<!DOCTYPE svg PUBLIC "-//W3C//DTD SVG 20010904//EN"
 "http://www.w3.org/TR/2001/REC-SVG-20010904/DTD/svg10.dtd">
<svg version="1.0" xmlns="http://www.w3.org/2000/svg"
 width="24.000000pt" height="24.000000pt" viewBox="0 0 24.000000 24.000000"
 preserveAspectRatio="xMidYMid meet">

<g transform="translate(0.000000,24.000000) scale(0.100000,-0.100000)"
fill="#000000" stroke="none">
<path d="M2 140 l3 -75 43 -3 c44 -3 59 -25 22 -35 -11 -3 -20 -10 -20 -16 0
-7 26 -11 70 -11 44 0 70 4 70 11 0 6 -9 13 -20 16 -37 10 -22 32 23 35 l42 3
3 75 3 75 -121 0 -121 0 3 -75z m174 -3 c28 5 34 2 34 -12 0 -14 -6 -17 -34
-12 -27 4 -36 2 -39 -11 -3 -9 -5 1 -5 23 0 22 2 32 5 23 3 -13 12 -15 39 -11z
m27 16 c-7 -2 -21 -2 -30 0 -10 3 -4 5 12 5 17 0 24 -2 18 -5z m0 -60 c-7 -2
-21 -2 -30 0 -10 3 -4 5 12 5 17 0 24 -2 18 -5z m-63 -48 c0 -8 -9 -15 -20
-15 -11 0 -20 7 -20 15 0 8 9 15 20 15 11 0 20 -7 20 -15z m13 -32 c-18 -2
-48 -2 -65 0 -18 2 -4 4 32 4 36 0 50 -2 33 -4z"/>
</g>
</svg>
